<svg width="119" height="64" viewBox="0 0 119 64" fill="none" xmlns="http://www.w3.org/2000/svg">
<g clip-path="url(#clip0_929_1324)">
<path d="M23.0097 41.041C22.8893 41.8351 22.7087 42.7107 22.4879 43.6881C22.2672 44.6655 21.9662 45.765 21.605 47.0274L20.1603 41.265H18.7556L17.3109 47.0274C16.9497 45.765 16.6487 44.6655 16.428 43.6881C16.2072 42.7107 16.0266 41.8351 15.9062 41.041H14.4414C14.5618 41.713 14.7223 42.4256 14.8829 43.179C15.0635 43.9324 15.2441 44.6654 15.4447 45.3985C15.6454 46.1315 15.846 46.8442 16.0668 47.5569C16.2875 48.2492 16.5082 48.8804 16.7289 49.4505H17.973L19.4379 43.3216L19.4981 43.5659L20.9228 49.4505H22.1669C22.3876 48.8804 22.6083 48.2492 22.8291 47.5569C23.0498 46.8645 23.2504 46.1519 23.4511 45.3985C23.6518 44.6451 23.8324 43.9121 24.013 43.179C24.1936 42.4256 24.334 41.7333 24.4544 41.041H23.0097Z" fill="#EE0000"/>
<path d="M28.0663 49.4505V41.041H29.5311V49.4505H28.0663Z" fill="#EE0000"/>
<path d="M52.5269 41.041C52.4667 41.4279 52.3865 41.9369 52.2861 42.5478C52.1657 43.179 51.9851 43.9935 51.7443 44.9912C51.5035 45.989 51.1825 46.9867 50.8012 48.1066L49.0956 41.265H48.0522L46.3465 48.1066C45.9653 46.9867 45.6643 46.0093 45.4034 44.9912C45.1626 43.9935 44.982 43.179 44.8617 42.5478C44.7413 41.9166 44.661 41.4279 44.6209 41.041H43.7781C43.9185 41.8351 44.0791 42.67 44.2797 43.5455C44.4804 44.4211 44.6811 45.2559 44.9018 46.0501C45.1225 46.8442 45.3232 47.5161 45.5038 48.0863C45.6844 48.6564 45.8449 49.1044 45.9653 49.4505H46.8883L48.5739 42.3849L50.2594 49.4505H51.1825C51.3029 49.1247 51.4634 48.6564 51.644 48.0863C51.8246 47.5161 52.0253 46.8442 52.246 46.0501C52.4667 45.2559 52.6674 44.4211 52.868 43.5455C53.0687 42.67 53.2292 41.8351 53.3697 41.041H52.5269Z" fill="#EE0000"/>
<path d="M73.2954 47.74C73.2954 47.74 73.2954 47.7593 73.3145 47.7593Z" fill="#EE0000"/>
<path d="M73.8774 41.041H73.0948V47.8012V47.8623C72.4326 46.722 71.6701 45.4596 70.9678 44.36C70.2454 43.2401 69.5029 42.1406 68.7003 41.0614H67.9177V49.4709H68.7003V42.3035C69.5029 43.4641 70.2655 44.6247 70.9878 45.8057C71.7303 46.9867 72.4326 48.2288 73.1149 49.4709H73.8573V41.041H73.8774Z" fill="#EE0000"/>
<path d="M78.6932 49.4505V41.041H81.041C81.6028 41.041 82.1246 41.1225 82.566 41.3057C83.0275 41.489 83.4088 41.7537 83.7098 42.0998C84.0308 42.446 84.2716 42.894 84.4322 43.4234C84.5927 43.9528 84.673 44.5636 84.673 45.2559C84.673 45.9483 84.5927 46.5591 84.4322 47.0885C84.2716 47.6179 84.0308 48.0455 83.7098 48.4121C83.3887 48.7582 83.0075 49.0229 82.566 49.2062C82.1045 49.3894 81.6028 49.4709 81.041 49.4709H78.6932V49.4505ZM79.516 48.7582H81.0811C81.5226 48.7582 81.9239 48.6768 82.2449 48.5342C82.5861 48.3713 82.867 48.1474 83.1078 47.8623C83.3486 47.5569 83.5091 47.1903 83.6295 46.7627C83.7499 46.3351 83.8101 45.8261 83.8101 45.2763C83.8101 44.7265 83.7499 44.2175 83.6295 43.7899C83.5091 43.3623 83.3285 42.9958 83.1078 42.6903C82.867 42.3849 82.5861 42.1609 82.2449 41.998C81.9038 41.8351 81.5226 41.774 81.0811 41.774H79.516V48.7582Z" fill="#EE0000"/>
<path d="M89.0273 49.4505V41.041H94.1241V41.7333H89.8501V44.8691H93.7028V45.5614H89.8501V48.7378H94.3449V49.4505H89.0273Z" fill="#EE0000"/>
<path d="M103.575 47.6994C103.194 47.0274 102.692 46.3555 102.11 45.6632C102.191 45.6428 102.271 45.6021 102.271 45.6021C102.572 45.5003 102.833 45.3374 103.094 45.1338C103.334 44.9302 103.535 44.6654 103.656 44.3397C103.796 44.0139 103.856 43.6677 103.856 43.2808C103.856 42.5682 103.635 42.0184 103.214 41.6315C102.793 41.2446 102.131 41.041 101.268 41.041H98.4985V49.4505H99.2811V45.8057H101.107C101.328 46.0297 101.589 46.3351 101.87 46.722C102.151 47.1089 102.432 47.5161 102.712 47.9641C102.973 48.4121 103.254 48.9007 103.535 49.4505H104.498C104.278 48.9822 103.977 48.3917 103.575 47.6994ZM99.3012 45.1134V41.713H100.987C101.328 41.713 101.649 41.7537 101.97 41.8351C102.291 41.9166 102.532 42.0795 102.712 42.3238C102.893 42.5682 102.993 42.9143 102.993 43.3623C102.993 43.627 102.933 43.8917 102.833 44.1768C102.813 44.2378 102.773 44.2989 102.732 44.3804C102.612 44.5433 102.472 44.6654 102.311 44.7876C102.271 44.808 102.251 44.8283 102.211 44.8691C101.89 45.0523 101.569 45.1338 101.087 45.1338H99.3012V45.1134Z" fill="#EE0000"/>
<path d="M39.5241 47.3329C39.1629 46.722 38.7816 46.1722 38.3602 45.6836C38.4004 45.6632 38.4606 45.6428 38.5007 45.6225C38.7415 45.5003 38.9422 45.3374 39.1428 45.1338C39.3435 44.9302 39.504 44.6858 39.6244 44.3804C39.7448 44.075 39.805 43.7492 39.805 43.403C39.805 43.0161 39.7448 42.6903 39.6043 42.3849C39.4839 42.0998 39.2833 41.8351 39.0425 41.6519C38.8017 41.4483 38.5007 41.3057 38.1395 41.2039C37.7783 41.1021 37.3569 41.041 36.8954 41.041H36.6947H35.7316H34.2065V49.4505H35.6312V46.0704H35.9724H36.8553C37.0359 46.274 37.2365 46.5184 37.4372 46.8035C37.6379 47.0885 37.8185 47.3736 38.0191 47.679C38.1997 47.9845 38.3803 48.2899 38.5609 48.5953C38.7214 48.9007 38.882 49.1858 39.0024 49.4505H40.6478C40.2665 48.6768 39.9053 47.9845 39.5241 47.3329ZM35.9924 44.8894H35.6312V42.222H35.8921H36.4941H36.7148C36.9957 42.222 37.2767 42.2627 37.5175 42.3238C37.7583 42.3849 37.9589 42.5274 38.0793 42.7107C38.2198 42.894 38.28 43.179 38.28 43.5048C38.28 43.7084 38.2398 43.9121 38.1596 44.136C38.0793 44.36 37.9188 44.5229 37.6579 44.6858C37.3971 44.8283 37.0559 44.9098 36.6145 44.9098H36.3536H35.9924V44.8894Z" fill="#EE0000"/>
<path d="M62.56 41.041V46.6406C62.56 47.0274 62.4998 47.394 62.3794 47.7401C62.259 48.0863 62.0383 48.3713 61.7172 48.5546C61.3962 48.7582 60.9949 48.86 60.5333 48.86H60.2925C59.9915 48.86 59.7307 48.8193 59.4899 48.7378C59.2491 48.6564 59.0284 48.5139 58.8478 48.3306C58.6672 48.1474 58.5267 47.9234 58.4264 47.6383C58.3261 47.3532 58.2859 47.0274 58.2859 46.6406V41.041H57.4833V46.6202C57.4833 47.1292 57.5435 47.5772 57.6839 47.9437C57.8244 48.3102 58.0251 48.636 58.2659 48.8804C58.5067 49.1247 58.8076 49.308 59.1688 49.4302C59.51 49.5523 59.8912 49.6134 60.2925 49.6134H60.5333C60.9547 49.6134 61.336 49.5523 61.6771 49.4302C62.0182 49.308 62.3192 49.1247 62.5801 48.8804C62.8209 48.636 63.0215 48.3306 63.162 47.9437C63.3025 47.5772 63.3627 47.1292 63.3627 46.6202V41.041H62.56Z" fill="#EE0000"/>
<path d="M93.4017 15.955C90.5724 13.5523 86.3585 13.9188 83.9907 16.7898C83.5292 17.3396 83.168 17.9505 82.9272 18.602C82.7065 19.0907 82.5259 19.5998 82.4055 20.1496C82.3854 20.2921 79.2751 32.5907 79.2751 32.5907C79.235 32.7129 79.2751 32.8351 79.3755 32.9165C79.4758 32.998 79.6163 33.0183 79.7166 32.9572C79.7166 32.9572 91.1142 27.7242 91.2546 27.6835C91.7563 27.4799 92.2379 27.2152 92.6593 26.9097C93.2412 26.5432 93.7629 26.0749 94.2244 25.5251C96.5922 22.6337 96.231 18.3577 93.4017 15.955ZM91.4553 23.1224C90.3717 24.4459 88.4253 24.6088 87.1411 23.5093C85.8568 22.4097 85.6763 20.4346 86.7598 19.1315C87.8434 17.8283 89.7898 17.645 91.074 18.7446C92.3583 19.8441 92.5589 21.8192 91.4553 23.1224Z" fill="#EE0000"/>
<path d="M80.9005 19.7832C80.3185 16.9121 77.5695 15.0388 74.7402 15.6293C71.9108 16.1995 70.0647 19.0094 70.6467 21.8805C70.7671 22.4302 70.9477 22.9596 71.2085 23.428C71.3891 23.8148 71.6098 24.161 71.8908 24.5071C71.951 24.5886 76.9876 31.3488 77.7701 32.3872C77.7701 32.4076 77.7902 32.4076 77.7902 32.4076C77.8504 32.5094 77.9909 32.5705 78.1113 32.5298C78.2317 32.5094 78.3119 32.4076 78.3521 32.3058C78.633 31.1655 80.7399 22.7967 80.7801 22.6949C80.9005 22.2673 80.9807 21.8601 81.0008 21.4325C81.0209 20.9031 81.0008 20.3533 80.9005 19.7832ZM73.4158 21.29C73.1549 19.9664 73.9977 18.6836 75.302 18.4189C76.6063 18.1542 77.8705 19.0094 78.1313 20.3329C78.3922 21.6565 77.5494 22.9393 76.2451 23.204C74.9408 23.4687 73.6767 22.6135 73.4158 21.29Z" fill="#EE0000"/>
</g>
<defs>
<clipPath id="clip0_929_1324">
<rect width="91" height="36" fill="white" transform="translate(14 14)"/>
</clipPath>
</defs>
</svg>
