<svg enable-background="new 0 0 453.5 176.8" viewBox="0 0 453.5 176.8" xmlns="http://www.w3.org/2000/svg"><g fill="#ff0000"><path d="m44.9 132.8c-.6 3.9-1.5 8.2-2.6 13s-2.6 10.2-4.4 16.4l-7.2-28.3h-7l-7.2 28.3c-1.8-6.2-3.3-11.6-4.4-16.4s-2-9.1-2.6-13h-7.3c.6 3.3 1.4 6.8 2.2 10.5.9 3.7 1.8 7.3 2.8 10.9s2 7.1 3.1 10.6c1.1 3.4 2.2 6.5 3.3 9.3h6.2l7.3-30.1.3 1.2 7.1 28.9h6.2c1.1-2.8 2.2-5.9 3.3-9.3s2.1-6.9 3.1-10.6 1.9-7.3 2.8-10.9c.9-3.7 1.6-7.1 2.2-10.5z"/><path d="m70.1 174.1v-41.3h7.3v41.3z"/><path d="m192 132.8c-.3 1.9-.7 4.4-1.2 7.4-.6 3.1-1.5 7.1-2.7 12s-2.8 9.8-4.7 15.3l-8.5-33.6h-5.2l-8.5 33.6c-1.9-5.5-3.4-10.3-4.7-15.3-1.2-4.9-2.1-8.9-2.7-12s-1-5.5-1.2-7.4h-4.2c.7 3.9 1.5 8 2.5 12.3s2 8.4 3.1 12.3 2.1 7.2 3 10 1.7 5 2.3 6.7h4.6l8.4-34.7 8.4 34.7h4.6c.6-1.6 1.4-3.9 2.3-6.7s1.9-6.1 3-10 2.1-8 3.1-12.3 1.8-8.4 2.5-12.3z"/><path d="m295.5 165.7s0 .1.1.1"/><path d="m298.4 132.8h-3.9v33.2.3c-3.3-5.6-7.1-11.8-10.6-17.2-3.6-5.5-7.3-10.9-11.3-16.2h-3.9v41.3h3.9v-35.2c4 5.7 7.8 11.4 11.4 17.2 3.7 5.8 7.2 11.9 10.6 18h3.7v-41.4z"/><path d="m322.4 174.1v-41.3h11.7c2.8 0 5.4.4 7.6 1.3 2.3.9 4.2 2.2 5.7 3.9 1.6 1.7 2.8 3.9 3.6 6.5s1.2 5.6 1.2 9-.4 6.4-1.2 9-2 4.7-3.6 6.5c-1.6 1.7-3.5 3-5.7 3.9-2.3.9-4.8 1.3-7.6 1.3h-11.7zm4.1-3.4h7.8c2.2 0 4.2-.4 5.8-1.1 1.7-.8 3.1-1.9 4.3-3.3 1.2-1.5 2-3.3 2.6-5.4s.9-4.6.9-7.3-.3-5.2-.9-7.3-1.5-3.9-2.6-5.4c-1.2-1.5-2.6-2.6-4.3-3.4s-3.6-1.1-5.8-1.1h-7.8z"/><path d="m373.9 174.1v-41.3h25.4v3.4h-21.3v15.4h19.2v3.4h-19.2v15.6h22.4v3.5z"/><path d="m446.4 165.5c-1.9-3.3-4.4-6.6-7.3-10 .4-.1.8-.3.8-.3 1.5-.5 2.8-1.3 4.1-2.3 1.2-1 2.2-2.3 2.8-3.9.7-1.6 1-3.3 1-5.2 0-3.5-1.1-6.2-3.2-8.1s-5.4-2.9-9.7-2.9h-13.8v41.3h3.9v-17.9h9.1c1.1 1.1 2.4 2.6 3.8 4.5s2.8 3.9 4.2 6.1c1.3 2.2 2.7 4.6 4.1 7.3h4.8c-1.1-2.3-2.6-5.2-4.6-8.6zm-21.3-12.7v-16.7h8.4c1.7 0 3.3.2 4.9.6s2.8 1.2 3.7 2.4 1.4 2.9 1.4 5.1c0 1.3-.3 2.6-.8 4-.1.3-.3.6-.5 1-.6.8-1.3 1.4-2.1 2-.2.1-.3.2-.5.4-1.6.9-3.2 1.3-5.6 1.3h-8.9z"/><path d="m127.2 163.7c-1.8-3-3.7-5.7-5.8-8.1.2-.1.5-.2.7-.3 1.2-.6 2.2-1.4 3.2-2.4s1.8-2.2 2.4-3.7.9-3.1.9-4.8c0-1.9-.3-3.5-1-5-.6-1.4-1.6-2.7-2.8-3.6-1.2-1-2.7-1.7-4.5-2.2s-3.9-.8-6.2-.8h-1-4.8-7.6v41.3h7.1v-16.6h1.7 4.4c.9 1 1.9 2.2 2.9 3.6s1.9 2.8 2.9 4.3c.9 1.5 1.8 3 2.7 4.5.8 1.5 1.6 2.9 2.2 4.2h8.2c-1.9-3.8-3.7-7.2-5.6-10.4zm-17.6-12h-1.8v-13.1h1.3 3 1.1c1.4 0 2.8.2 4 .5s2.2 1 2.8 1.9c.7.9 1 2.3 1 3.9 0 1-.2 2-.6 3.1s-1.2 1.9-2.5 2.7c-1.3.7-3 1.1-5.2 1.1h-1.3-1.8z"/><path d="m242 132.8v27.5c0 1.9-.3 3.7-.9 5.4s-1.7 3.1-3.3 4c-1.6 1-3.6 1.5-5.9 1.5h-1.2c-1.5 0-2.8-.2-4-.6s-2.3-1.1-3.2-2-1.6-2-2.1-3.4-.7-3-.7-4.9v-27.5h-4v27.4c0 2.5.3 4.7 1 6.5s1.7 3.4 2.9 4.6 2.7 2.1 4.5 2.7c1.7.6 3.6.9 5.6.9h1.2c2.1 0 4-.3 5.7-.9s3.2-1.5 4.5-2.7c1.2-1.2 2.2-2.7 2.9-4.6.7-1.8 1-4 1-6.5v-27.4z"/><path d="m395.7 9.6c-14.1-11.8-35.1-10-46.9 4.1-2.3 2.7-4.1 5.7-5.3 8.9-1.1 2.4-2 4.9-2.6 7.6-.1.7-15.6 61.1-15.6 61.1-.2.6 0 1.2.5 1.6s1.2.5 1.7.2c0 0 56.8-25.7 57.5-25.9 2.5-1 4.9-2.3 7-3.8 2.9-1.8 5.5-4.1 7.8-6.8 11.8-14.2 10-35.2-4.1-47zm-9.7 35.2c-5.4 6.5-15.1 7.3-21.5 1.9s-7.3-15.1-1.9-21.5 15.1-7.3 21.5-1.9 7.4 15.1 1.9 21.5z"/><path d="m333.4 28.4c-2.9-14.1-16.6-23.3-30.7-20.4-14.1 2.8-23.3 16.6-20.4 30.7.6 2.7 1.5 5.3 2.8 7.6.9 1.9 2 3.6 3.4 5.3.3.4 25.4 33.6 29.3 38.7 0 .1.1.1.1.1.3.5 1 .8 1.6.6.6-.1 1-.6 1.2-1.1 1.4-5.6 11.9-46.7 12.1-47.2.6-2.1 1-4.1 1.1-6.2.1-2.6 0-5.3-.5-8.1zm-37.3 7.4c-1.3-6.5 2.9-12.8 9.4-14.1s12.8 2.9 14.1 9.4-2.9 12.8-9.4 14.1-12.8-2.9-14.1-9.4z"/></g></svg>
